<?xml version="1.0" encoding="utf-8"?>
<!-- Generator: Adobe Illustrator 24.1.2, SVG Export Plug-In . SVG Version: 6.00 Build 0)  -->
<svg id="Layer_1" style="enable-background:new 0 0 32 32;" version="1.1" viewBox="0 0 32 32"
     x="0px"
     xml:space="preserve" xmlns="http://www.w3.org/2000/svg" y="0px">
<style type="text/css">
	.st0 {
        fill: #0001FE;
    }

    .st1 {
        fill: #FF0100;
    }
</style>
    <g id="Group_3225" transform="translate(-91.069 -65.86)">
	<path id="Rectangle_3126" class="st0" d="M102.7,78.9h8.6c0.4,0,0.7,0.3,0.7,0.7l0,0c0,0.4-0.3,0.7-0.7,0.7h-8.6
		c-0.4,0-0.7-0.3-0.7-0.7l0,0C102,79.3,102.4,78.9,102.7,78.9z"/>
        <path class="st1" d="M103.2,78.3h7.6c0,0,3.1-2,0.2-5.3c-0.9-1-3.1-2.4-3.6-6.2c-0.5,0.5-1.9,2.7-0.7,6.4
		c-0.4-0.3-1.6-0.9-1.1-3.9c-1.3,1.5-1.6,3.6-0.9,5.4c-0.6-0.2-1-1-1.2-2.4C102,73.9,101.9,76.4,103.2,78.3z"
              id="Path_7758"/>
        <path class="st0" d="M103.7,81.5h6.7c0,0,0.8,0.2,0.3,0.9c-0.5,0.6-2.6,1.2-3.6,4.9c-0.6-2-1.8-3.7-3.6-4.8
		c-0.3-0.2-0.3-0.5-0.1-0.8C103.5,81.6,103.6,81.5,103.7,81.5z" id="Path_7759"/>
        <path class="st0" d="M106.8,88.8h0.5c0,0,1.2-6.5,7.3-5.5c2.7,0.5,4.6,2.8,4.7,5.5c-1.3,0.3-2.2,1.4-2.2,2.7
		c0,2.6,2.5,2.5,2.8,2.5c0.1,0,0.2-0.1,0.3-0.2c0-0.1-0.1-0.2-0.2-0.2c-0.9,0-1.7-0.4-2.2-1.1c-0.6-1-0.3-2.3,0.7-3
		c0,0,0.1-0.1,0.1-0.1c1.4-0.8,3.1-0.3,3.9,1.1c0.2,0.4,0.3,0.8,0.4,1.2c0.4,1.8-0.6,3.6-2.3,4.2c-0.5,0-1.9,0.7-3.9-1.3
		c-0.9,0.7-2,1-3.2,0.9c-0.2-0.1-1.6,0-1,1.2c0,0.1-2.2-0.8-0.8-3c-0.7-1.4,0-3.1,1.4-3.8c0.5-0.2,1-0.3,1.5-0.2c0,0-1.7,0.9-0.9,2
		c0.1,0.2,1.4,1.4,2.8-0.2c0.2-0.1,1.5-3.4-0.8-5c-0.5-0.4-4.9-2.6-5.8,3.6c1.4,1.4,1.4,3.6,0,4.9c-1.3,1.5-3.6,1.5-5.1,0.2
		c-0.2-0.2-0.4-0.5-0.6-0.8c-0.9-1.4-0.7-3.2,0.4-4.4c-0.4-1.7-0.9-4.1-3-4.3c-0.9-0.1-4.1,0-4.2,3.5c0,0.9,0.2,3.3,2.5,3.1
		c0.7,0,2-1.8-0.1-2.6c-0.2-0.1,4.2,0,2.8,4.1c0.7,0.8,0.6,2-0.1,2.7c-0.2,0.2-0.4,0.3-0.7,0.4c0.5-1.2-0.5-1.4-0.9-1.4
		c-1.2,0.2-2.4-0.1-3.4-0.9c-0.3,0.5-3.4,3-5.6,0.1c-0.6-0.8-1.7-5.3,2.3-5.6c0.7,0,1.4,0.3,1.8,0.9c0.6,0.5,1.7,3.2-1.8,3.7
		c-0.2,0-0.1,0.2-0.1,0.2s0,0.2,0.1,0.2c0.2,0.1,2.9,0.2,2.9-2.5c0-1.3-0.9-2.4-2.2-2.7c0.2-2.8,2.2-5.1,4.9-5.5
		c0.4-0.1,3.6-0.2,5,1.6C105.7,86,106.4,87.3,106.8,88.8z M107.1,91.3c-0.7,0-1.3,0.6-1.3,1.3c0,0.7,0.6,1.3,1.3,1.3
		c0.7,0,1.3-0.6,1.3-1.3l0,0C108.4,91.9,107.8,91.3,107.1,91.3L107.1,91.3z" id="Path_7760"/>
</g>
</svg>
